# Blender 4.2.6 LTS
# www.blender.org
mtllib Single_Surface_Bubble.mtl
o Sphere.114
v 0.134219 -0.292030 -0.988654
v -0.165425 0.466234 -0.178801
v 0.110981 0.405330 -0.433454
v 0.053010 0.167522 -0.812172
v 0.332078 -0.143785 -0.928899
v 0.629590 -0.208667 -0.767523
v 0.579882 0.086818 -0.660699
v 0.875384 -0.208667 -0.468164
v 0.054262 0.475415 0.195261
v 0.457052 0.311090 -0.439016
v 0.987908 -0.208667 -0.097532
v 0.895410 0.061824 -0.092017
v 0.991308 -0.295077 0.101793
v 0.300326 0.451833 -0.018755
v 0.618504 0.325427 0.087854
v 0.884220 -0.296857 0.459065
v 0.745586 0.055637 0.494122
v 0.672020 -0.302201 0.729743
v 0.421776 0.052727 0.782986
v 0.438418 -0.296726 0.896492
v 0.321256 0.310633 0.543255
v 0.106090 -0.156828 0.985277
v -0.025731 0.249872 0.721914
v -0.248284 0.057610 0.851311
v -0.303235 -0.297041 0.951048
v -0.214998 0.396819 0.411728
v -0.497466 0.185861 0.599604
v -0.621679 -0.156828 0.771713
v -0.833938 -0.299880 0.537130
v -0.779732 0.125873 0.340580
v -0.964760 -0.292030 0.254338
v -0.797810 0.144866 -0.262845
v -0.987043 -0.156828 -0.088166
v -0.452158 0.400328 0.087320
v -0.883993 -0.296782 -0.459384
v -0.540766 0.309957 -0.323643
v -0.624643 -0.296086 -0.774827
v -0.267955 0.308388 -0.568153
v -0.252891 -0.297851 -0.964535
v -0.427672 0.061823 -0.792037
v -0.108720 -0.373146 -1.103902
v 0.215821 -0.370208 -1.085006
v 0.423348 -0.370208 -1.022053
v 0.614606 -0.370208 -0.919823
v 0.782245 -0.370208 -0.782245
v 0.919823 -0.370208 -0.614606
v 1.022053 -0.370208 -0.423348
v 1.103902 -0.373146 -0.108724
v 1.085005 -0.370208 0.215821
v 1.022052 -0.370208 0.423348
v 0.919823 -0.370208 0.614606
v 0.782245 -0.370208 0.782245
v 0.614606 -0.370208 0.919823
v 0.423348 -0.370208 1.022052
v 0.215820 -0.370208 1.085005
v -0.000000 -0.370208 1.106261
v -0.215821 -0.370208 1.085005
v -0.423348 -0.370208 1.022052
v -0.614606 -0.370208 0.919822
v -0.782245 -0.370208 0.782245
v -0.919823 -0.370208 0.614605
v -1.022052 -0.370208 0.423347
v -1.085005 -0.370208 0.215820
v -1.106261 -0.370208 -0.000000
v -1.085005 -0.370208 -0.215821
v -1.022052 -0.370208 -0.423348
v -0.919822 -0.370208 -0.614606
v -0.782244 -0.370208 -0.782245
v -0.614605 -0.370208 -0.919823
v -0.423347 -0.370208 -1.022052
v 0.789436 -0.307250 -0.618052
vn 0.5041 0.3674 -0.7816
vn 0.0492 0.9974 -0.0534
vn 0.7273 0.3382 -0.5972
vn 0.4079 0.9007 -0.1495
vn 0.6506 0.6835 -0.3310
vn 0.9078 0.3161 -0.2756
vn 0.9399 0.3189 0.1222
vn 0.7399 0.6436 0.1959
vn 0.7617 0.2397 0.6019
vn 0.4779 0.6907 0.5427
vn 0.0669 -0.4165 0.9067
vn -0.1786 0.2919 0.9396
vn 0.0144 0.5468 0.8372
vn -0.5729 -0.3585 0.7370
vn -0.2482 0.8081 0.5342
vn -0.1739 0.9751 0.1377
vn -0.6355 0.5179 0.5726
vn -0.7912 0.3365 0.5107
vn -0.8632 0.2981 0.4076
vn -0.9094 -0.4038 -0.1002
vn -0.6218 0.7820 0.0432
vn -0.8688 0.3327 -0.3666
vn -0.5501 0.6757 -0.4908
vn -0.2650 0.9159 -0.3015
vn -0.4444 0.2026 -0.8726
vn -0.1438 0.8008 -0.5814
vn -0.5565 0.8290 0.0548
vn -0.4682 0.8474 0.2503
vn -0.4019 0.8542 0.3298
vn -0.2465 0.8523 0.4612
vn -0.0496 0.8626 0.5035
vn 0.1556 0.8443 0.5128
vn 0.3325 0.8517 0.4051
vn 0.5060 0.8191 0.2704
vn 0.8600 -0.4487 -0.2429
vn 0.0118 0.3603 -0.9328
vn 0.3069 0.5629 -0.7675
vn 0.2125 0.8125 -0.5428
vn 0.2866 0.7483 -0.5982
vn 0.7421 0.2794 -0.6093
vn 0.0812 0.9857 -0.1476
vn 0.9017 0.3537 0.2485
vn 0.2529 0.9419 -0.2211
vn 0.7650 0.5029 -0.4024
vn 0.6015 0.7720 -0.2053
vn 0.2899 0.9307 0.2230
vn 0.6017 0.3141 0.7344
vn 0.5110 0.7811 0.3589
vn 0.0491 0.9154 0.3995
vn 0.3631 0.3034 0.8810
vn 0.2208 0.7088 0.6699
vn 0.1405 0.5698 0.8096
vn -0.4426 0.8404 0.3127
vn -0.2628 0.7293 0.6317
vn -0.4552 0.5259 0.7185
vn -0.3624 0.3039 0.8811
vn -0.7218 0.3847 -0.5754
vn -0.1610 0.9844 0.0704
vn -0.8352 0.5483 0.0423
vn -0.9103 0.3614 0.2019
vn -0.5500 0.8326 -0.0645
vn -0.3370 0.9321 -0.1323
vn -0.0942 0.3651 -0.9262
vn -0.4446 0.7427 -0.5008
vn -0.1870 0.7240 -0.6639
vn -0.1147 0.9308 -0.3471
vn -0.0293 0.8485 -0.5283
vn 0.3855 0.8661 0.3182
vn 0.4945 0.8561 0.1500
vn -0.5076 0.8346 0.2140
vn -0.2282 0.8657 -0.4454
vn -0.3902 0.8636 -0.3194
vn -0.3642 0.8188 -0.4438
vn -0.4030 0.9139 -0.0489
vn -0.5062 0.8189 -0.2705
vn -0.4945 0.8561 -0.1500
vn -0.2499 0.9167 0.3117
vn 0.0303 0.9219 0.3862
vn -0.1683 0.8147 0.5548
vn 0.2935 0.8454 0.4463
vn 0.5460 0.8319 0.0995
vn 0.3716 0.9219 -0.1101
vn 0.4300 -0.3662 -0.8252
vn 0.1969 0.9258 -0.3227
vn 0.4282 0.8742 -0.2289
vn 0.4160 0.8428 -0.3414
vn 0.2902 0.8892 -0.3537
vn -0.0143 0.8316 -0.5552
vn 0.1623 0.8290 -0.5352
vt 0.692952 0.575676
vt 0.633787 0.661134
vt 0.640645 0.549248
vt 0.863236 0.918197
vt 0.671875 1.000000
vt 0.518868 0.902020
vt 0.578145 0.549245
vt 0.478894 0.783695
vt 0.624796 0.780415
vt 0.515826 0.655822
vt 0.515645 0.549249
vt 0.487512 0.532911
vt 0.406332 0.656006
vt 0.430457 0.523107
vt 0.362896 0.522457
vt 0.334038 0.785338
vt 0.328165 0.655822
vt 0.316333 0.535560
vt 0.266364 0.568816
vt 0.200814 0.514467
vt 0.203785 0.656908
vt 0.244385 0.746390
vt 0.141364 0.568814
vt 0.091063 0.512958
vt 0.175368 0.849395
vt 0.140588 0.718339
vt 0.262009 0.930059
vt 0.037541 0.849831
vt 0.062822 0.689373
vt 0.035126 0.536620
vt 1.000000 0.511204
vt 0.985112 0.568814
vt 0.930200 0.523377
vt 0.000000 0.718339
vt 0.953198 0.687153
vt 0.914304 0.785509
vt 0.828341 0.654805
vt 0.819562 0.785445
vt 0.857975 0.515120
vt 0.785249 0.525366
vt 0.812500 0.485879
vt 0.765624 0.485879
vt 0.031250 0.485879
vt 0.000000 0.485879
vt 0.093750 0.485879
vt 0.062500 0.485879
vt 0.125000 0.485879
vt 0.093750 0.485879
vt 0.187500 0.485879
vt 0.156250 0.485879
vt 0.250000 0.485879
vt 0.218750 0.485879
vt 0.312500 0.485879
vt 0.281250 0.485879
vt 0.375000 0.485879
vt 0.343750 0.485879
vt 0.437500 0.485879
vt 0.406250 0.485879
vt 0.605672 0.511204
vt 0.738260 0.707429
vt 0.722392 0.536492
vt 0.716350 0.856096
vt 0.031184 0.937500
vt 0.000005 0.568813
vt 0.982112 0.849831
vt 0.406250 0.485879
vt 0.375000 0.485879
vt 0.437500 0.485879
vt 0.468750 0.485879
vt 0.031250 0.485879
vt 0.062500 0.485879
vt 0.812500 0.485879
vt 0.843750 0.485879
vt 0.875000 0.485879
vt 0.906250 0.485879
vt 0.875000 0.485879
vt 0.968750 0.485879
vt 1.000000 0.485879
vt 0.937500 0.485879
vt 0.937500 0.485879
vt 0.968750 0.485879
vt 0.156250 0.485879
vt 0.250000 0.485879
vt 0.281250 0.485879
vt 0.218750 0.485879
vt 0.312500 0.485879
vt 0.343750 0.485879
vt 0.515625 0.485879
vt 0.562500 0.485879
vt 0.656250 0.485879
vt 0.687500 0.485879
vt 0.593750 0.485879
vt 0.625000 0.485879
vt 0.718750 0.485879
vt 0.718750 0.485879
s 0
f 5/1/1 7/2/1 6/3/1
f 2/4/2 9/5/2 14/6/2
f 6/3/3 7/2/3 8/7/3
f 14/6/4 15/8/4 10/9/4
f 7/2/5 10/9/5 12/10/5
f 8/7/6 12/10/6 11/11/6
f 11/11/7 12/10/7 13/12/7
f 12/10/8 15/8/8 17/13/8
f 16/14/9 17/13/9 18/15/9
f 17/13/10 21/16/10 19/17/10
f 20/18/11 22/19/11 25/20/11
f 22/19/12 24/21/12 25/20/12
f 23/22/13 24/21/13 22/19/13
f 25/20/14 28/23/14 29/24/14
f 26/25/15 27/26/15 23/22/15
f 9/27/16 34/28/16 26/25/16
f 27/26/17 30/29/17 28/23/17
f 28/23/18 30/29/18 29/24/18
f 29/24/19 30/29/19 31/30/19
f 31/31/20 33/32/20 35/33/20
f 34/28/21 32/34/21 30/29/21
f 33/32/22 32/35/22 35/33/22
f 32/35/23 36/36/23 40/37/23
f 36/36/24 2/4/24 38/38/24
f 37/39/25 40/37/25 39/40/25
f 70/41/26 39/40/26 41/42/26
f 63/43/27 31/30/27 64/44/27
f 61/45/28 29/24/28 62/46/28
f 60/47/29 29/24/29 61/48/29
f 58/49/30 25/20/30 59/50/30
f 56/51/31 25/20/31 57/52/31
f 54/53/32 20/18/32 55/54/32
f 52/55/33 18/15/33 53/56/33
f 50/57/34 16/14/34 51/58/34
f 11/11/35 13/12/35 71/59/35 8/7/35
f 4/60/36 5/1/36 1/61/36
f 4/60/37 7/2/37 5/1/37
f 3/62/38 10/9/38 4/60/38
f 4/60/39 10/9/39 7/2/39
f 71/59/40 6/3/40 8/7/40
f 2/4/41 14/6/41 3/62/41
f 17/13/42 16/14/42 13/12/42 12/10/42
f 3/62/43 14/6/43 10/9/43
f 8/7/44 7/2/44 12/10/44
f 12/10/45 10/9/45 15/8/45
f 9/27/46 21/16/46 15/8/46 14/6/46
f 19/17/47 20/18/47 18/15/47 17/13/47
f 17/13/48 15/8/48 21/16/48
f 26/25/49 23/22/49 21/16/49 9/27/49
f 20/18/50 19/17/50 22/19/50
f 19/17/51 21/16/51 23/22/51
f 19/17/52 23/22/52 22/19/52
f 30/29/53 27/26/53 26/25/53 34/28/53
f 24/21/54 23/22/54 27/26/54
f 24/21/55 27/26/55 28/23/55
f 25/20/56 24/21/56 28/23/56
f 40/37/57 37/39/57 35/33/57 32/35/57
f 9/27/58 2/63/58 34/28/58
f 30/29/59 32/34/59 33/64/59
f 31/30/60 30/29/60 33/64/60
f 34/65/61 36/36/61 32/35/61
f 36/36/62 34/65/62 2/4/62
f 4/60/63 1/61/63 39/40/63 40/37/63
f 40/37/64 36/36/64 38/38/64
f 40/37/65 38/38/65 4/60/65
f 38/38/66 2/4/66 3/62/66
f 4/60/67 38/38/67 3/62/67
f 51/66/68 16/14/68 18/15/68 52/67/68
f 16/14/69 50/68/69 49/69/69
f 63/70/70 62/71/70 29/24/70 31/30/70
f 39/40/71 70/72/71 69/73/71 37/39/71
f 37/39/72 68/74/72 67/75/72 35/33/72
f 69/73/73 68/76/73 37/39/73
f 31/31/74 35/33/74 65/77/74 64/78/74
f 67/75/75 66/79/75 35/33/75
f 66/80/76 65/81/76 35/33/76
f 29/24/77 60/47/77 59/82/77 25/20/77
f 25/20/78 56/83/78 55/84/78 20/18/78
f 58/49/79 57/85/79 25/20/79
f 20/18/80 54/86/80 53/87/80 18/15/80
f 13/12/81 16/14/81 49/69/81 48/88/81
f 13/12/82 48/88/82 47/89/82 71/59/82
f 6/3/83 71/59/83 1/61/83 5/1/83
f 1/61/84 71/59/84 44/90/84 43/91/84
f 47/89/85 46/92/85 71/59/85
f 46/92/86 45/93/86 71/59/86
f 45/93/87 44/90/87 71/59/87
f 39/40/88 1/61/88 42/94/88 41/42/88
f 43/91/89 42/95/89 1/61/89
