# Blender 4.2.6 LTS
# www.blender.org
mtllib Soap2_Highlights.mtl
o Circle
v -1.909000 0.054966 1.216481
v -1.922751 0.033254 1.227039
v -1.933748 0.013264 1.245304
v -1.941568 -0.004236 1.270572
v -1.945910 -0.018574 1.301874
v -1.946609 -0.029198 1.338006
v -1.943636 -0.035700 1.377580
v -1.937107 -0.037831 1.419075
v -1.927272 -0.035508 1.460897
v -1.914509 -0.028821 1.501437
v -1.899308 -0.018026 1.539139
v -1.882254 -0.003539 1.572553
v -1.864002 0.014084 1.600396
v -1.845254 0.034165 1.621597
v -1.826729 0.055933 1.635341
v -1.809141 0.078551 1.641101
v -1.793164 0.101151 1.638655
v -1.779413 0.122863 1.628097
v -1.768416 0.142853 1.609832
v -1.760596 0.160353 1.584564
v -1.756253 0.174690 1.553262
v -1.755555 0.185314 1.517130
v -1.758527 0.191817 1.477556
v -1.765057 0.193947 1.436061
v -1.774892 0.191624 1.394239
v -1.787655 0.184937 1.353698
v -1.802856 0.174142 1.315997
v -1.819910 0.159655 1.282583
v -1.838161 0.142033 1.254740
v -1.856910 0.121951 1.233539
v -1.875434 0.100183 1.219795
v -1.893023 0.077565 1.214035
vn -0.7986 0.5814 0.1555
vt 0.000000 0.000000
s 0
f 2/1/1 3/1/1 4/1/1 5/1/1 6/1/1 7/1/1 8/1/1 9/1/1 10/1/1 11/1/1 12/1/1 13/1/1 14/1/1 15/1/1 16/1/1 17/1/1 18/1/1 19/1/1 20/1/1 21/1/1 22/1/1 23/1/1 24/1/1 25/1/1 26/1/1 27/1/1 28/1/1 29/1/1 30/1/1 31/1/1 32/1/1 1/1/1
o Circle.001
v -1.226574 0.023905 1.895137
v -1.231011 0.014255 1.910346
v -1.231372 0.007056 1.928478
v -1.227642 0.002585 1.948837
v -1.219966 0.001014 1.970641
v -1.208639 0.002404 1.993052
v -1.194094 0.006700 2.015208
v -1.176893 0.013739 2.036258
v -1.157694 0.023249 2.055394
v -1.137237 0.034865 2.071879
v -1.116308 0.048140 2.085081
v -1.095710 0.062565 2.094491
v -1.076236 0.077585 2.099749
v -1.058633 0.092622 2.100652
v -1.043579 0.107100 2.097165
v -1.031651 0.120461 2.089423
v -1.023308 0.132193 2.077723
v -1.018871 0.141843 2.062515
v -1.018510 0.149042 2.044383
v -1.022239 0.153513 2.024023
v -1.029915 0.155084 2.002219
v -1.041243 0.153695 1.979808
v -1.055787 0.149398 1.957652
v -1.072989 0.142359 1.936602
v -1.092187 0.132849 1.917466
v -1.112644 0.121234 1.900981
v -1.133574 0.107958 1.887779
v -1.154172 0.093533 1.878369
v -1.173646 0.078513 1.873111
v -1.191249 0.063476 1.872208
v -1.206303 0.048998 1.875695
v -1.218231 0.035637 1.883437
vn -0.6326 0.7240 0.2749
vt 0.000000 0.000000
s 0
f 34/2/2 35/2/2 36/2/2 37/2/2 38/2/2 39/2/2 40/2/2 41/2/2 42/2/2 43/2/2 44/2/2 45/2/2 46/2/2 47/2/2 48/2/2 49/2/2 50/2/2 51/2/2 52/2/2 53/2/2 54/2/2 55/2/2 56/2/2 57/2/2 58/2/2 59/2/2 60/2/2 61/2/2 62/2/2 63/2/2 64/2/2 33/2/2
o Circle.002
v -0.409843 0.435793 1.576139
v -0.413812 0.419783 1.592221
v -0.412729 0.406298 1.612326
v -0.406636 0.395859 1.635681
v -0.395767 0.388864 1.661387
v -0.380540 0.385584 1.688458
v -0.361540 0.386143 1.715853
v -0.339496 0.390522 1.742519
v -0.315258 0.398551 1.767432
v -0.289754 0.409922 1.789634
v -0.263967 0.424197 1.808272
v -0.238886 0.440830 1.822629
v -0.215476 0.459179 1.832154
v -0.194636 0.478540 1.836481
v -0.177167 0.498169 1.835444
v -0.163740 0.517312 1.829082
v -0.154872 0.535233 1.817640
v -0.150903 0.551243 1.801558
v -0.151986 0.564727 1.781453
v -0.158079 0.575167 1.758099
v -0.168948 0.582162 1.732392
v -0.184175 0.585442 1.705321
v -0.203175 0.584882 1.677926
v -0.225218 0.580504 1.651260
v -0.249457 0.572475 1.626347
v -0.274961 0.561104 1.604146
v -0.300748 0.546828 1.585508
v -0.325829 0.530196 1.571150
v -0.349239 0.511847 1.561625
v -0.370079 0.492486 1.557298
v -0.387548 0.472856 1.558335
v -0.400975 0.453714 1.564697
vn -0.6577 0.6087 0.4437
vt 0.000000 0.000000
s 0
f 66/3/3 67/3/3 68/3/3 69/3/3 70/3/3 71/3/3 72/3/3 73/3/3 74/3/3 75/3/3 76/3/3 77/3/3 78/3/3 79/3/3 80/3/3 81/3/3 82/3/3 83/3/3 84/3/3 85/3/3 86/3/3 87/3/3 88/3/3 89/3/3 90/3/3 91/3/3 92/3/3 93/3/3 94/3/3 95/3/3 96/3/3 65/3/3
